<svg xmlns="http://www.w3.org/2000/svg" viewBox="0 0 1200 600" preserveAspectRatio="xMidYMid slice">
  <defs>
    <linearGradient id="g0" x1="0%" y1="0%" x2="100%" y2="0%"><stop offset="0%" stop-color="#22c55e"/><stop offset="48%" stop-color="#064e3b"/><stop offset="52%" stop-color="#374151"/><stop offset="100%" stop-color="#111827"/></linearGradient>
  </defs>
  <g fill="none" stroke="url(#g0)" stroke-width="0.85">
    <path d="M 0 30 C 220 280, 460 485, 690 490 C 870 495, 1000 230, 1200 30" opacity="1"/>
    <path d="M 0 45 C 220 296, 460 486, 690 490 C 870 495, 1000 244, 1200 44" opacity="0.97"/>
    <path d="M 0 60 C 220 311, 460 487, 690 491 C 870 496, 1000 258, 1200 58" opacity="0.95"/>
    <path d="M 0 75 C 220 326, 460 487, 690 491 C 870 496, 1000 272, 1200 72" opacity="0.93"/>
    <path d="M 0 90 C 220 341, 460 488, 690 492 C 870 497, 1000 286, 1200 86" opacity="0.91"/>
    <path d="M 0 105 C 220 356, 460 488, 690 492 C 870 497, 1000 300, 1200 100" opacity="0.89"/>
    <path d="M 0 120 C 220 371, 460 489, 690 493 C 870 498, 1000 314, 1200 114" opacity="0.87"/>
    <path d="M 0 135 C 220 386, 460 489, 690 493 C 870 498, 1000 328, 1200 128" opacity="0.85"/>
    <path d="M 0 150 C 220 401, 460 490, 690 494 C 870 499, 1000 342, 1200 142" opacity="0.83"/>
    <path d="M 0 165 C 220 416, 460 490, 690 494 C 870 499, 1000 356, 1200 156" opacity="0.81"/>
    <path d="M 0 180 C 220 431, 460 491, 690 495 C 870 500, 1000 370, 1200 170" opacity="0.79"/>
    <path d="M 0 195 C 220 446, 460 491, 690 495 C 870 500, 1000 384, 1200 184" opacity="0.77"/>
    <path d="M 0 210 C 220 461, 460 492, 690 496 C 870 501, 1000 398, 1200 198" opacity="0.75"/>
    <path d="M 0 225 C 220 476, 460 492, 690 496 C 870 501, 1000 412, 1200 212" opacity="0.73"/>
    <path d="M 0 240 C 220 491, 460 493, 690 497 C 870 502, 1000 426, 1200 226" opacity="0.71"/>
    <path d="M 0 255 C 220 506, 460 493, 690 497 C 870 502, 1000 440, 1200 240" opacity="0.69"/>
    <path d="M 0 270 C 220 521, 460 494, 690 498 C 870 503, 1000 454, 1200 254" opacity="0.67"/>
    <path d="M 0 285 C 220 536, 460 494, 690 498 C 870 503, 1000 468, 1200 268" opacity="0.65"/>
    <path d="M 0 300 C 220 551, 460 495, 690 499 C 870 504, 1000 482, 1200 282" opacity="0.63"/>
    <path d="M 0 315 C 220 566, 460 495, 690 499 C 870 504, 1000 496, 1200 296" opacity="0.61"/>
  </g>
</svg>
